<svg xmlns="http://www.w3.org/2000/svg" xml:space="preserve" viewBox="0 0 1707 960"><path fill="#F9EAD3" d="M927 961H1.068V1c308.295 0 616.657 0 925.476.456.456 317.644.456 634.832.463 952.02 0 2.161.102 4.323.088 6.74-.078.432-.086.608-.095.784z"/><path fill="#11133C" d="M927.163 959.96c-.054-2.161-.156-4.323-.156-6.484C927 636.288 927 319.1 927 1.456 1187.272 1 1447.543 1 1708 1c0 319.363 0 638.725-.458 958.544-223.935.456-447.413.458-670.89.454-36.496 0-72.993-.024-109.489-.037M1460.5 294.972h-424.2v208.69h490.405v-208.69H1460.5m190.02 364.203c-1.772-.742-3.542-2.13-5.315-2.133-68.47-.11-136.942-.096-205.413-.08-1.442.001-2.884.213-4.318.325v234.818c6.628-.392 12.778-.547 18.88-1.174 6.77-.696 13.541-1.584 20.236-2.801 54.615-9.932 99.19-36.657 132.82-80.85 33.07-43.46 45.895-93.132 43.11-148.105m-250.59-596.92c-2.476.337-4.968.576-7.423 1.024-46.186 8.434-76.628 51.808-69.393 98.839 6.931 45.054 49.27 76.653 95.195 71.047 48.796-5.955 82.985-53.476 73.082-101.579-8.958-43.51-45.447-71.482-91.462-69.331m-242.59 579.9-20.012-35.278-53.558 91.021h181.678l-51.363-90.43-38.917 66.02c-6.116-10.787-11.767-20.755-17.827-31.334z"/><path fill="#3C3C59" d="M927.095 960.216c36.564-.242 73.06-.218 109.557-.218 223.477.004 446.955.002 670.89.002.292.333.143.944-.044.956-1.327.083-2.662.044-3.995.044H927.458c-.45-.176-.44-.352-.363-.784z"/><path fill="#F9EAD3" d="M1461 294.972h65.705v208.69H1036.3v-208.69H1461m-304.005 87.34c-9.531-3.838-18.44-2.44-27.287 4.16v-31.157h-10.44v78.193h10.453l.689-4.459c16.916 11.677 33.133 2.872 38.785-7.51 7.733-14.204 2.792-31.305-12.2-39.228m246.416 10.906c-3.082-5.72-7.817-9.408-14.006-11.218-12.83-3.752-26.042 2.267-31.106 14.12-5.632 13.18-.928 28.918 10.601 35.471 11.524 6.55 28.456 3.384 35.455-5.918l-6.476-7.525c-6.16 6.345-13.57 8.304-21.872 5.449-5.512-1.897-8.258-6.306-8.976-12.517h41.155c-1.635-6.44-3.003-11.832-4.775-17.862m-217.913-3.17c-13.31 16.925-1.74 37.061 10.066 43.743 6.599 3.734 10.14 2.416 15.142-2.957 4.307-4.628 9.459-8.72 14.874-11.994 4.988-3.016 7.562-6.511 7.453-12.338-.201-10.738-6.415-20.27-16.15-24.265-10.718-4.398-22.102-1.722-31.385 7.81m55.419-.468c.028 7.661-.216 15.335.148 22.98.595 12.508 8.808 20.782 21.487 22.184 12.354 1.366 23.679-4.88 25.613-16.388 2.009-11.951 1.56-24.315 2.19-36.546h-11.706c0 1.531.016 2.68-.003 3.828-.15 9.15.105 18.332-.59 27.44-.568 7.429-5.567 11.492-12.578 11.607-6.762.111-11.512-3.676-12.963-10.721-.53-2.575-.482-5.29-.501-7.943-.059-8.085-.022-16.171-.022-24.239h-11.075v7.798m57.301-5.109c6.512 15.28 13.198 30.488 19.406 45.89 1.482 3.674 3.774 3.558 6.6 3.412 2.948-.153 6.036 1.033 7.77-3.263 6.282-15.552 12.988-30.933 19.508-46.389.294-.695.346-1.491.517-2.272-10.51-1.29-10.505-1.288-14.016 7.68-4.08 10.42-8.17 20.838-12.627 32.205-5.054-12.822-9.726-24.7-14.422-36.568-1.45-3.665-10.498-5.57-13.338-2.788-.17.167.23.918.602 2.093m129.98 49.289c.616-1.273 1.735-2.536 1.762-3.821.159-7.496.059-14.996.051-22.495-.005-5.425 0-10.849 0-16.694h15.796v-9.331h-15.955V355.17h-10.814V381.2l-6.967.481v9.375h7.137v42.716c3.096 0 5.582 0 8.99-.013z"/><path fill="#1D43C6" d="M1650.618 659.622c2.687 54.526-10.138 104.198-43.209 147.657-33.63 44.194-78.204 70.92-132.819 80.85-6.695 1.218-13.465 2.106-20.236 2.802-6.102.627-12.252.782-18.88 1.174V657.287c1.434-.112 2.876-.324 4.318-.324 68.471-.017 136.942-.031 205.413.079 1.773.002 3.543 1.39 5.413 2.58z"/><path fill="#F8A86F" d="M1400.392 62.218c45.552-2.114 82.04 25.859 90.999 69.368 9.903 48.103-24.286 95.624-73.082 101.58-45.925 5.605-88.264-25.994-95.195-71.048-7.235-47.03 23.207-90.405 69.393-98.839 2.455-.448 4.947-.687 7.885-1.06z"/><path fill="#77FC9B" d="M1157.544 642.46c5.856 10.273 11.507 20.24 17.623 31.029l38.917-66.021c17.38 30.597 34.383 60.534 51.363 90.43H1083.77l53.558-91.021c6.897 12.157 13.455 23.717 20.217 35.583z"/><path fill="#16183F" d="M1157.323 382.508c14.664 7.726 19.605 24.827 11.872 39.031-5.652 10.382-21.87 19.187-38.785 7.51l-.689 4.459h-10.453v-78.193h10.44v31.157c8.847-6.6 17.756-7.998 27.615-3.964m-11.81 42.018c1.316-.163 2.657-.214 3.943-.508 9.004-2.063 14.182-12.384 11.195-22.24-2.706-8.929-11.98-13.64-20.537-10.435-6.954 2.605-11.02 10.127-10.093 18.672.86 7.925 6.01 13.02 15.493 14.511z"/><path fill="#171840" d="M1403.613 393.535c1.57 5.712 2.938 11.104 4.573 17.544h-41.156c.72 6.211 3.465 10.62 8.977 12.517 8.302 2.855 15.712.896 21.872-5.45l6.476 7.526c-6.999 9.302-23.93 12.469-35.455 5.918-11.53-6.553-16.233-22.291-10.601-35.472 5.064-11.852 18.276-17.871 31.106-14.119 6.189 1.81 10.924 5.498 14.208 11.536m-18.24-2.625c-9.67-1.76-15.792 1.94-17.962 11.082h28.004c-1.045-5.736-4.292-9.05-10.043-11.082z"/><path fill="#161840" d="M1185.734 389.774c9.047-9.26 20.431-11.936 31.15-7.538 9.734 3.995 15.948 13.527 16.149 24.265.109 5.827-2.465 9.322-7.453 12.338-5.415 3.274-10.567 7.366-14.874 11.994-5.001 5.373-8.543 6.691-15.142 2.957-11.805-6.682-23.377-26.818-9.83-44.016m30.66 6.226c-5.97-4.407-12.294-4.897-18.681-1.204-5.564 3.216-8.09 8.475-7.547 14.719.637 7.32 4.684 12.754 11.29 15.942 3.467 1.674 6.452 1.264 8.887-2.63 1.782-2.848 4.559-5.344 7.415-7.185 4.007-2.583 5.475-6.009 4.13-10.172-1.034-3.196-3.242-6.012-5.494-9.47z"/><path fill="#181940" d="M1240.917 389.093v-7.313h11.075c0 8.068-.037 16.154.022 24.239.019 2.653-.03 5.368.501 7.943 1.451 7.045 6.2 10.832 12.963 10.721 7.011-.115 12.01-4.178 12.577-11.606.696-9.11.441-18.29.591-27.44.019-1.149.003-2.298.003-3.83h11.705c-.628 12.232-.18 24.596-2.189 36.547-1.934 11.508-13.259 17.754-25.613 16.388-12.679-1.402-20.892-9.676-21.487-22.184-.364-7.645-.12-15.319-.148-23.465z"/><path fill="#191A41" d="M1298.1 384.12c-.254-.826-.654-1.577-.484-1.744 2.84-2.782 11.888-.877 13.338 2.788 4.696 11.868 9.368 23.746 14.422 36.568 4.457-11.367 8.546-21.784 12.627-32.205 3.511-8.968 3.507-8.97 14.016-7.68-.171.78-.223 1.577-.517 2.272-6.52 15.456-13.226 30.837-19.507 46.39-1.735 4.295-4.823 3.11-7.77 3.262-2.827.146-5.12.262-6.6-3.413-6.209-15.401-12.895-30.61-19.526-46.237z"/><path fill="#16183F" d="M1427.737 433.764c-2.947.007-5.433.007-8.53.007v-42.716h-7.136v-9.375l6.967-.48V355.17h10.814v26.246h15.955v9.33h-15.797c0 5.846-.004 11.27.001 16.695.008 7.499.108 15-.05 22.495-.028 1.285-1.147 2.548-2.224 3.827z"/><path fill="#F5E7D1" d="M1145.075 424.499c-9.044-1.464-14.194-6.559-15.054-14.484-.927-8.545 3.14-16.067 10.093-18.672 8.558-3.206 17.831 1.506 20.537 10.435 2.987 9.856-2.19 20.177-11.195 22.24-1.286.294-2.627.345-4.381.481zM1385.755 390.989c5.368 1.952 8.615 5.267 9.66 11.003h-28.004c2.17-9.141 8.291-12.841 18.344-11.003zM1216.677 396.237c1.969 3.221 4.177 6.037 5.21 9.233 1.346 4.163-.122 7.59-4.129 10.172-2.856 1.841-5.633 4.337-7.415 7.186-2.435 3.893-5.42 4.303-8.887 2.63-6.606-3.19-10.653-8.622-11.29-15.943-.543-6.244 1.983-11.503 7.547-14.719 6.387-3.693 12.712-3.203 18.964 1.44z"/></svg>