<svg version="1.1" id="Layer_1" xmlns="http://www.w3.org/2000/svg" xmlns:xlink="http://www.w3.org/1999/xlink" x="0px" y="0px"
	 width="100%" viewBox="0 0 1123 1378" enable-background="new 0 0 1123 1378" xml:space="preserve" height="100%">
<path fill="#11133C" opacity="1.000000" stroke="none" 
	d="
M669.000000,1379.000000 
	C446.000000,1379.000000 223.500000,1379.000000 1.000000,1379.000000 
	C1.000000,919.666687 1.000000,460.333344 1.000000,1.000000 
	C375.333344,1.000000 749.666687,1.000000 1124.000000,1.000000 
	C1124.000000,460.333344 1124.000000,919.666687 1124.000000,1379.000000 
	C972.500000,1379.000000 821.000000,1379.000000 669.000000,1379.000000 
M743.500000,721.000305 
	C783.922241,721.000305 824.344421,721.000305 864.683472,721.000305 
	C864.683472,620.662476 864.683472,520.939514 864.683472,421.306915 
	C629.323059,421.306915 394.279541,421.306915 159.316498,421.306915 
	C159.316498,521.337524 159.316498,621.060547 159.316498,721.000305 
	C353.922211,721.000305 548.211121,721.000305 743.500000,721.000305 
M773.500000,941.999390 
	C759.761414,941.999390 746.022827,941.999390 732.409119,941.999390 
	C732.409119,1054.813965 732.409119,1166.692139 732.409119,1278.565186 
	C922.790710,1280.384888 1059.874512,1115.456177 1041.271362,941.999390 
	C952.383240,941.999390 863.441650,941.999390 773.500000,941.999390 
M671.368713,88.885582 
	C607.085938,98.249634 560.199707,162.675369 570.240967,227.843887 
	C580.613098,295.159882 642.671936,341.321686 710.010010,331.809601 
	C781.488159,321.712677 829.305481,252.285767 812.748474,182.040161 
	C797.428040,117.041290 734.510742,78.081192 671.368713,88.885582 
M284.681946,1000.462036 
	C352.516327,1000.981323 420.350708,1001.500671 489.016998,1002.026367 
	C463.950348,957.864075 439.390106,914.593933 414.547119,870.825684 
	C395.782440,902.706604 377.418060,933.907410 358.757751,965.611023 
	C340.493652,933.450378 322.638733,902.010254 304.463837,870.006714 
	C278.852386,913.570618 253.643509,956.449768 227.776779,1000.447876 
	C247.428741,1000.447876 265.578125,1000.447876 284.681946,1000.462036 
z"/>
<path fill="#F9EAD3" opacity="1.000000" stroke="none" 
	d="
M743.000000,721.000305 
	C548.211121,721.000305 353.922211,721.000305 159.316498,721.000305 
	C159.316498,621.060547 159.316498,521.337524 159.316498,421.306915 
	C394.279541,421.306915 629.323059,421.306915 864.683472,421.306915 
	C864.683472,520.939514 864.683472,620.662476 864.683472,721.000305 
	C824.344421,721.000305 783.922241,721.000305 743.000000,721.000305 
M352.233978,599.693054 
	C352.692932,598.446899 353.228577,597.223083 353.599487,595.951355 
	C360.192993,573.342712 347.894928,550.616455 326.082001,545.577881 
	C314.450226,542.891113 303.730377,545.413757 293.440796,553.831482 
	C293.440796,537.860901 293.440796,523.025513 293.440796,508.225525 
	C287.918396,508.225525 283.147522,508.225525 278.320190,508.225525 
	C278.320190,546.152832 278.320190,583.847900 278.320190,621.460999 
	C283.695831,621.460999 288.738922,621.460999 294.064514,621.460999 
	C294.064514,619.140259 294.064514,617.205627 294.064514,615.127380 
	C320.686249,628.782349 340.939911,623.557129 352.233978,599.693054 
M665.190186,546.116211 
	C644.050537,542.218628 627.313110,550.772644 620.685486,568.861633 
	C613.628601,588.122009 620.417969,608.953979 636.752991,618.162354 
	C653.408325,627.551270 677.845581,623.109863 689.156616,609.010437 
	C685.919861,605.444397 682.726868,601.926575 679.574768,598.453796 
	C667.005310,608.393555 655.407043,610.912903 645.321533,605.982483 
	C638.327759,602.563354 635.016785,596.678711 633.889343,588.539551 
	C653.482849,588.539551 672.552856,588.539551 691.545349,588.539551 
	C693.971741,568.421692 684.151733,552.456421 665.190186,546.116211 
M420.214783,548.160339 
	C404.457214,541.854187 389.696228,543.345276 377.140289,555.131714 
	C365.401520,566.151062 361.969788,580.055481 367.230286,595.284851 
	C371.828491,608.596802 379.726807,619.520752 393.883026,624.289795 
	C399.328888,626.124390 404.389648,624.993774 407.603149,620.129883 
	C413.955078,610.515869 422.306610,603.559387 432.883667,599.098328 
	C439.371368,596.362000 441.846191,590.944519 441.849609,584.286743 
	C441.857758,568.300354 435.301392,556.087097 420.214783,548.160339 
M453.095917,571.499939 
	C453.380188,579.474670 453.043549,587.530884 454.077148,595.407288 
	C456.271881,612.132507 468.970642,622.671509 486.565826,623.232788 
	C505.198822,623.827209 518.272644,614.480469 522.036804,597.749268 
	C522.653259,595.009277 523.092957,592.165649 523.113892,589.366211 
	C523.220764,575.087708 523.163330,560.807922 523.163330,546.531006 
	C517.744812,546.531006 512.814392,546.531006 507.330078,546.531006 
	C507.330078,548.587524 507.341431,550.373413 507.328308,552.159241 
	C507.232819,565.145569 507.531555,578.151001 506.909607,591.112244 
	C506.394897,601.838989 499.138855,608.412231 488.896393,608.780334 
	C478.788513,609.143555 471.595520,603.423828 469.906128,592.842102 
	C469.021729,587.302734 469.162811,581.578308 469.096100,575.934448 
	C468.980713,566.172363 469.064087,556.407959 469.064087,546.647705 
	C463.406311,546.647705 458.357391,546.647705 453.095917,546.647705 
	C453.095917,554.860413 453.095917,562.680176 453.095917,571.499939 
M589.112000,604.710449 
	C597.256348,585.421875 605.400696,566.133240 613.795105,546.252258 
	C608.810730,546.252258 604.971191,546.482971 601.174194,546.180237 
	C598.063721,545.932190 596.830200,547.296631 595.871399,549.999634 
	C593.708618,556.097351 591.248535,562.090088 588.891296,568.118408 
	C584.246948,579.995483 579.590332,591.867859 574.626099,604.540344 
	C566.777344,584.586609 559.264160,565.486145 551.747498,546.376709 
	C545.847595,546.376709 540.220947,546.376709 534.163452,546.376709 
	C534.861816,548.290710 535.401978,549.988953 536.090271,551.624756 
	C545.166870,573.196838 554.407410,594.701843 563.238525,616.373718 
	C565.057251,620.836914 567.426819,622.124390 572.025452,621.960205 
	C581.953369,621.605896 581.960815,621.851257 585.779846,612.778442 
	C586.810303,610.330322 587.851196,607.886597 589.112000,604.710449 
M733.558228,560.109436 
	C738.307373,560.109436 743.056458,560.109436 747.740967,560.109436 
	C747.740967,555.181946 747.740967,550.928040 747.740967,546.178650 
	C740.093689,546.178650 732.701416,546.178650 724.872925,546.178650 
	C724.872925,533.270081 724.872925,520.860718 724.872925,508.233276 
	C719.518555,508.233276 714.622253,508.233276 709.120361,508.233276 
	C709.120361,521.001526 709.120361,533.539307 709.120361,546.446655 
	C705.411072,546.446655 702.308472,546.446655 699.198120,546.446655 
	C699.198120,551.222290 699.198120,555.596375 699.198120,560.325317 
	C702.682007,560.325317 705.783813,560.325317 709.353394,560.325317 
	C709.353394,580.914062 709.353394,601.143616 709.353394,621.609009 
	C714.736328,621.609009 719.641113,621.609009 725.104126,621.609009 
	C725.104126,601.067444 725.104126,580.717834 725.104126,560.109436 
	C727.966431,560.109436 730.274109,560.109436 733.558228,560.109436 
z"/>
<path fill="#1D43C6" opacity="1.000000" stroke="none" 
	d="
M774.000000,941.999390 
	C863.441650,941.999390 952.383240,941.999390 1041.271362,941.999390 
	C1059.874512,1115.456177 922.790710,1280.384888 732.409119,1278.565186 
	C732.409119,1166.692139 732.409119,1054.813965 732.409119,941.999390 
	C746.022827,941.999390 759.761414,941.999390 774.000000,941.999390 
z"/>
<path fill="#F9A86F" opacity="1.000000" stroke="none" 
	d="
M671.798340,88.811340 
	C734.510742,78.081192 797.428040,117.041290 812.748474,182.040161 
	C829.305481,252.285767 781.488159,321.712677 710.010010,331.809601 
	C642.671936,341.321686 580.613098,295.159882 570.240967,227.843887 
	C560.199707,162.675369 607.085938,98.249634 671.798340,88.811340 
z"/>
<path fill="#77FD9C" opacity="1.000000" stroke="none" 
	d="
M284.204712,1000.454956 
	C265.578125,1000.447876 247.428741,1000.447876 227.776779,1000.447876 
	C253.643509,956.449768 278.852386,913.570618 304.463837,870.006714 
	C322.638733,902.010254 340.493652,933.450378 358.757751,965.611023 
	C377.418060,933.907410 395.782440,902.706604 414.547119,870.825684 
	C439.390106,914.593933 463.950348,957.864075 489.016998,1002.026367 
	C420.350708,1001.500671 352.516327,1000.981323 284.204712,1000.454956 
z"/>
<path fill="#14163E" opacity="1.000000" stroke="none" 
	d="
M352.105103,600.056885 
	C340.939911,623.557129 320.686249,628.782349 294.064514,615.127380 
	C294.064514,617.205627 294.064514,619.140259 294.064514,621.460999 
	C288.738922,621.460999 283.695831,621.460999 278.320190,621.460999 
	C278.320190,583.847900 278.320190,546.152832 278.320190,508.225525 
	C283.147522,508.225525 287.918396,508.225525 293.440796,508.225525 
	C293.440796,523.025513 293.440796,537.860901 293.440796,553.831482 
	C303.730377,545.413757 314.450226,542.891113 326.082001,545.577881 
	C347.894928,550.616455 360.192993,573.342712 353.599487,595.951355 
	C353.228577,597.223083 352.692932,598.446899 352.105103,600.056885 
M313.150024,559.394531 
	C292.327698,562.784790 288.739838,588.626343 299.640564,601.000183 
	C304.588531,606.616821 310.906128,609.143616 318.328461,608.407043 
	C331.506989,607.099121 339.965546,595.935364 338.954468,581.445862 
	C337.999329,567.757996 327.938599,558.819946 313.150024,559.394531 
z"/>
<path fill="#16173F" opacity="1.000000" stroke="none" 
	d="
M665.587708,546.222656 
	C684.151733,552.456421 693.971741,568.421692 691.545349,588.539551 
	C672.552856,588.539551 653.482849,588.539551 633.889343,588.539551 
	C635.016785,596.678711 638.327759,602.563354 645.321533,605.982483 
	C655.407043,610.912903 667.005310,608.393555 679.574768,598.453796 
	C682.726868,601.926575 685.919861,605.444397 689.156616,609.010437 
	C677.845581,623.109863 653.408325,627.551270 636.752991,618.162354 
	C620.417969,608.953979 613.628601,588.122009 620.685486,568.861633 
	C627.313110,550.772644 644.050537,542.218628 665.587708,546.222656 
M640.692322,575.967529 
	C652.121582,575.967529 663.550903,575.967529 675.012939,575.967529 
	C674.210571,566.307678 666.400208,559.247375 656.478638,558.776367 
	C644.392456,558.202637 636.338440,564.333252 634.340820,575.967529 
	C636.187988,575.967529 637.972168,575.967529 640.692322,575.967529 
z"/>
<path fill="#15173F" opacity="1.000000" stroke="none" 
	d="
M420.545349,548.344482 
	C435.301392,556.087097 441.857758,568.300354 441.849609,584.286743 
	C441.846191,590.944519 439.371368,596.362000 432.883667,599.098328 
	C422.306610,603.559387 413.955078,610.515869 407.603149,620.129883 
	C404.389648,624.993774 399.328888,626.124390 393.883026,624.289795 
	C379.726807,619.520752 371.828491,608.596802 367.230286,595.284851 
	C361.969788,580.055481 365.401520,566.151062 377.140289,555.131714 
	C389.696228,543.345276 404.457214,541.854187 420.545349,548.344482 
M380.607086,589.638428 
	C382.996918,599.240723 388.333374,606.512756 397.632202,610.332092 
	C401.288696,611.833923 405.500824,612.422180 407.784393,608.172302 
	C410.988403,602.209473 415.687622,597.985291 421.334778,594.595215 
	C425.547211,592.066467 426.886993,588.293762 426.447998,583.562622 
	C425.250427,570.655945 414.278687,561.134888 401.639832,562.134460 
	C387.889618,563.221863 379.087555,574.277527 380.607086,589.638428 
z"/>
<path fill="#16173F" opacity="1.000000" stroke="none" 
	d="
M453.095917,571.000000 
	C453.095917,562.680176 453.095917,554.860413 453.095917,546.647705 
	C458.357391,546.647705 463.406311,546.647705 469.064087,546.647705 
	C469.064087,556.407959 468.980713,566.172363 469.096100,575.934448 
	C469.162811,581.578308 469.021729,587.302734 469.906128,592.842102 
	C471.595520,603.423828 478.788513,609.143555 488.896393,608.780334 
	C499.138855,608.412231 506.394897,601.838989 506.909607,591.112244 
	C507.531555,578.151001 507.232819,565.145569 507.328308,552.159241 
	C507.341431,550.373413 507.330078,548.587524 507.330078,546.531006 
	C512.814392,546.531006 517.744812,546.531006 523.163330,546.531006 
	C523.163330,560.807922 523.220764,575.087708 523.113892,589.366211 
	C523.092957,592.165649 522.653259,595.009277 522.036804,597.749268 
	C518.272644,614.480469 505.198822,623.827209 486.565826,623.232788 
	C468.970642,622.671509 456.271881,612.132507 454.077148,595.407288 
	C453.043549,587.530884 453.380188,579.474670 453.095917,571.000000 
z"/>
<path fill="#16183F" opacity="1.000000" stroke="none" 
	d="
M588.999634,605.075684 
	C587.851196,607.886597 586.810303,610.330322 585.779846,612.778442 
	C581.960815,621.851257 581.953369,621.605896 572.025452,621.960205 
	C567.426819,622.124390 565.057251,620.836914 563.238525,616.373718 
	C554.407410,594.701843 545.166870,573.196838 536.090271,551.624756 
	C535.401978,549.988953 534.861816,548.290710 534.163452,546.376709 
	C540.220947,546.376709 545.847595,546.376709 551.747498,546.376709 
	C559.264160,565.486145 566.777344,584.586609 574.626099,604.540344 
	C579.590332,591.867859 584.246948,579.995483 588.891296,568.118408 
	C591.248535,562.090088 593.708618,556.097351 595.871399,549.999634 
	C596.830200,547.296631 598.063721,545.932190 601.174194,546.180237 
	C604.971191,546.482971 608.810730,546.252258 613.795105,546.252258 
	C605.400696,566.133240 597.256348,585.421875 588.999634,605.075684 
z"/>
<path fill="#171840" opacity="1.000000" stroke="none" 
	d="
M733.070007,560.109436 
	C730.274109,560.109436 727.966431,560.109436 725.104126,560.109436 
	C725.104126,580.717834 725.104126,601.067444 725.104126,621.609009 
	C719.641113,621.609009 714.736328,621.609009 709.353394,621.609009 
	C709.353394,601.143616 709.353394,580.914062 709.353394,560.325317 
	C705.783813,560.325317 702.682007,560.325317 699.198120,560.325317 
	C699.198120,555.596375 699.198120,551.222290 699.198120,546.446655 
	C702.308472,546.446655 705.411072,546.446655 709.120361,546.446655 
	C709.120361,533.539307 709.120361,521.001526 709.120361,508.233276 
	C714.622253,508.233276 719.518555,508.233276 724.872925,508.233276 
	C724.872925,520.860718 724.872925,533.270081 724.872925,546.178650 
	C732.701416,546.178650 740.093689,546.178650 747.740967,546.178650 
	C747.740967,550.928040 747.740967,555.181946 747.740967,560.109436 
	C743.056458,560.109436 738.307373,560.109436 733.070007,560.109436 
z"/>
<path fill="#F6E8D1" opacity="1.000000" stroke="none" 
	d="
M313.564423,559.325928 
	C327.938599,558.819946 337.999329,567.757996 338.954468,581.445862 
	C339.965546,595.935364 331.506989,607.099121 318.328461,608.407043 
	C310.906128,609.143616 304.588531,606.616821 299.640564,601.000183 
	C288.739838,588.626343 292.327698,562.784790 313.564423,559.325928 
z"/>
<path fill="#F6E8D1" opacity="1.000000" stroke="none" 
	d="
M640.224365,575.967529 
	C637.972168,575.967529 636.187988,575.967529 634.340820,575.967529 
	C636.338440,564.333252 644.392456,558.202637 656.478638,558.776367 
	C666.400208,559.247375 674.210571,566.307678 675.012939,575.967529 
	C663.550903,575.967529 652.121582,575.967529 640.224365,575.967529 
z"/>
<path fill="#F6E8D1" opacity="1.000000" stroke="none" 
	d="
M380.493896,589.237549 
	C379.087555,574.277527 387.889618,563.221863 401.639832,562.134460 
	C414.278687,561.134888 425.250427,570.655945 426.447998,583.562622 
	C426.886993,588.293762 425.547211,592.066467 421.334778,594.595215 
	C415.687622,597.985291 410.988403,602.209473 407.784393,608.172302 
	C405.500824,612.422180 401.288696,611.833923 397.632202,610.332092 
	C388.333374,606.512756 382.996918,599.240723 380.493896,589.237549 
z"/>
</svg>