<svg
   
   version="1.1"
   id="svg2"
   width="4466.6665"
   height="2152"
   viewBox="0 0 4466.6665 2152"
   sodipodi:docname="Bouvet_logo_off_white_CMYK (2).ai"
   xmlns:inkscape="http://www.inkscape.org/namespaces/inkscape"
   xmlns:sodipodi="http://sodipodi.sourceforge.net/DTD/sodipodi-0.dtd"
   xmlns="http://www.w3.org/2000/svg"
   xmlns:svg="http://www.w3.org/2000/svg">
  <defs
     id="defs6">
    <clipPath
       clipPathUnits="userSpaceOnUse"
       id="clipPath16">
      <path
         d="M 0,1614 H 3350 V 0 H 0 Z"
         id="path14" />
    </clipPath>
  </defs>
  <sodipodi:namedview
     id="namedview4"
     pagecolor="#ffffff"
     bordercolor="#000000"
     borderopacity="0.25"
     inkscape:showpageshadow="2"
     inkscape:pageopacity="0.0"
     inkscape:pagecheckerboard="0"
     inkscape:deskcolor="#d1d1d1" />
  <g
     id="g8"
     inkscape:groupmode="layer"
     inkscape:label="Bouvet_logo_off_white_CMYK (2)"
     transform="matrix(1.3333333,0,0,-1.3333333,0,2152)">
    <g
       id="g10">
      <g
         id="g12"
         clip-path="url(#clipPath16)">
        <g
           id="g18"
           transform="translate(2818.0715,904.9262)">
          <path
             d="m 0,0 h -112.138 l -0.835,186.376 h -75.019 V 0 h -51.554 v -67.104 h 51.554 v -299.35 h 76.635 l -0.781,299.35 112.138,0 z m -2099.767,-302.473 c -63.204,0 -110.577,51.331 -110.577,120.052 0,68.72 47.373,120.052 110.576,120.052 63.203,0 110.578,-51.332 110.578,-120.052 0,-68.721 -47.38,-120.046 -110.589,-120.046 z m 6.298,311.167 c -43.426,0.468 -85.334,-15.96 -116.875,-45.813 l -0.78,223.495 h -75.019 V -366.45 h 77.418 v 37.121 c 31.64,-28.466 72.698,-44.21 115.258,-44.198 104.271,0 183.249,82.933 183.249,191.114 0,108.181 -78.977,191.107 -183.251,191.107 m 500.702,-245.618 c -31.601,-19.73 -48.149,-36.339 -60.804,-62.367 -5.229,-10.416 -15.994,-16.883 -27.645,-16.609 -50.553,0 -108.18,66.38 -108.18,124.79 0,65.543 48.155,114.534 113.698,114.534 62.175,-0.235 112.388,-50.828 112.153,-113.003 v -0.005 c 0,-0.506 -0.011,-1.012 -0.016,-1.527 0,-20.505 -7.078,-32.376 -29.204,-45.813 v 0 z M -1674.92,8.694 c -28.958,0.066 -57.55,-6.472 -83.601,-19.118 -64.405,-31.466 -104.994,-97.143 -104.334,-168.82 0,-94.021 87.67,-202.984 162.689,-202.984 18.973,0.15 36.551,9.989 46.599,26.083 30.821,46.594 62.417,73.402 108.96,93.969 43.473,18.949 55.284,37.899 55.284,86.053 0.01,104.279 -81.312,184.815 -185.59,184.815 l -0.01,0.002 z M -1170.251,0 v -193.455 c 0,-69.5 -33.943,-109.796 -93.183,-109.796 -59.24,0 -93.188,40.296 -93.188,109.796 V 0 h -77.412 v -196.631 c 0,-109.016 65.544,-177.681 170.604,-177.681 105.059,0 170.6,68.665 170.6,177.681 V 0 Z M -732.737,0 -843.259,-283.521 -954.616,0 h -86.89 l 154.776,-366.45 h 78.975 l 154.83,366.448 z"
             style="fill:#f9ead4;fill-opacity:1;fill-rule:nonzero;stroke:none"
             id="path20" />
        </g>
        <g
           id="g22"
           transform="translate(2265.1921,759.8216)">
          <path
             d="M 0,0 H 202.707 C 196.198,46.612 157.608,82.098 110.615,84.683 51.664,88.066 10.053,56.214 -0.002,0 Z M 281.577,-62.077 H -1.555 c 5.718,-35.564 19.854,-65.12 51.973,-83.133 16.952,-9.107 35.936,-13.766 55.177,-13.544 33.384,-0.463 64.847,6.2 91.756,27.404 8.129,7.037 15.883,14.496 23.231,22.345 l 51.777,-50.507 c -10.342,-12.444 -22.316,-23.435 -35.598,-32.677 -42.708,-29.851 -90.496,-40.832 -141.761,-37.983 -41.569,1.45 -81.31,17.444 -112.293,45.195 -35.057,31.524 -53.582,71.769 -58.773,118.419 -5.401,40.177 0.772,81.061 17.794,117.852 27.087,56.571 72.589,88.25 133.518,97.636 37.613,6.632 76.36,1.276 110.764,-15.312 48.206,-23.79 76.175,-64.066 89.561,-115.481 6.682,-26.181 8.715,-53.331 6.006,-80.214"
             style="fill:#f9ead4;fill-opacity:1;fill-rule:nonzero;stroke:none"
             id="path24" />
        </g>
      </g>
    </g>
  </g>
</svg>
