<svg version="1.1" id="Layer_1" xmlns="http://www.w3.org/2000/svg" xmlns:xlink="http://www.w3.org/1999/xlink" x="0px" y="0px"
	 width="100%" viewBox="0 0 1707 960" enable-background="new 0 0 1707 960" xml:space="preserve">
<path fill="#F9EAD3" opacity="1.000000" stroke="none" 
	d="
M927.000000,961.000000 
	C618.378540,961.000000 309.757111,961.000000 1.067833,961.000000 
	C1.067833,641.092102 1.067833,321.184204 1.067833,1.000000 
	C309.362671,1.000000 617.725403,1.000000 926.544067,1.455951 
	C927.000000,319.099854 926.999695,636.287842 927.006775,953.475769 
	C927.006775,955.637390 927.108887,957.798950 927.094543,960.216064 
	C927.017151,960.647644 927.008606,960.823792 927.000000,961.000000 
z"/>
<path fill="#11133C" opacity="1.000000" stroke="none" 
	d="
M927.163391,959.960571 
	C927.108887,957.798950 927.006775,955.637390 927.006775,953.475769 
	C926.999695,636.287842 927.000000,319.099854 927.000000,1.455951 
	C1187.271729,1.000000 1447.543335,1.000000 1708.000000,1.000000 
	C1708.000000,320.362701 1708.000000,639.725403 1707.541992,959.544067 
	C1483.606689,960.000000 1260.129150,960.001831 1036.651733,959.998291 
	C1000.155640,959.997681 963.659485,959.973755 927.163391,959.960571 
M1460.500000,294.971954 
	C1319.104736,294.971954 1177.709595,294.971954 1036.300781,294.971954 
	C1036.300781,364.894928 1036.300781,434.274323 1036.300781,503.661102 
	C1199.962280,503.661102 1363.322388,503.661102 1526.704712,503.661102 
	C1526.704712,433.994995 1526.704712,364.612946 1526.704712,294.971954 
	C1504.773315,294.971954 1483.136597,294.971954 1460.500000,294.971954 
M1650.519287,659.175049 
	C1648.747925,658.432861 1646.977661,657.044434 1645.205200,657.041565 
	C1576.734253,656.931641 1508.263062,656.946350 1439.791992,656.962585 
	C1438.350220,656.962952 1436.908325,657.174744 1435.473755,657.287354 
	C1435.473755,735.647278 1435.473755,813.639221 1435.473755,892.105408 
	C1442.102173,891.712708 1448.252441,891.558044 1454.354004,890.930786 
	C1461.124756,890.234802 1467.895020,889.347351 1474.590210,888.129883 
	C1529.205200,878.198303 1573.779297,851.473389 1607.409180,807.279297 
	C1640.479858,763.820190 1653.305298,714.147888 1650.519287,659.175049 
M1399.929443,62.255009 
	C1397.454468,62.591656 1394.961792,62.831070 1392.507080,63.279312 
	C1346.321045,71.713310 1315.878784,115.087456 1323.113892,162.117767 
	C1330.045044,207.171768 1372.384033,238.770859 1418.309082,233.165482 
	C1467.104614,227.209732 1501.293701,179.688858 1491.390503,131.586472 
	C1482.432861,88.076920 1445.943848,60.104492 1399.929443,62.255009 
M1157.339600,642.154419 
	C1150.781738,630.594299 1144.223999,619.034241 1137.327271,606.876831 
	C1119.544800,637.097839 1102.044556,666.839050 1083.768799,697.898499 
	C1145.033936,697.898499 1204.998047,697.898499 1265.447266,697.898499 
	C1248.466553,668.001770 1231.463135,638.065125 1214.084473,607.467957 
	C1200.903809,629.828064 1188.228760,651.330566 1175.167114,673.488708 
	C1169.050903,662.700684 1163.400024,652.733398 1157.339600,642.154419 
z"/>
<path fill="#3C3C59" opacity="1.000000" stroke="none" 
	d="
M927.094543,960.216064 
	C963.659485,959.973755 1000.155640,959.997681 1036.651733,959.998291 
	C1260.129150,960.001831 1483.606689,960.000000 1707.541992,960.000000 
	C1707.833618,960.333374 1707.684692,960.943909 1707.498047,960.955566 
	C1706.170654,961.039001 1704.835571,961.000000 1703.502930,961.000000 
	C1444.973877,961.000000 1186.444946,961.000000 927.457947,961.000000 
	C927.008606,960.823792 927.017151,960.647644 927.094543,960.216064 
z"/>
<path fill="#F9EAD3" opacity="1.000000" stroke="none" 
	d="
M1461.000000,294.971954 
	C1483.136597,294.971954 1504.773315,294.971954 1526.704712,294.971954 
	C1526.704712,364.612946 1526.704712,433.994995 1526.704712,503.661102 
	C1363.322388,503.661102 1199.962280,503.661102 1036.300781,503.661102 
	C1036.300781,434.274323 1036.300781,364.894928 1036.300781,294.971954 
	C1177.709595,294.971954 1319.104736,294.971954 1461.000000,294.971954 
M1156.994507,382.311462 
	C1147.463501,378.474304 1138.555420,379.872681 1129.708496,386.471741 
	C1129.708496,375.438690 1129.708496,365.366241 1129.708496,355.315338 
	C1125.884521,355.315338 1122.510498,355.315338 1119.267822,355.315338 
	C1119.267822,381.574554 1119.267822,407.469818 1119.267822,433.507874 
	C1122.947021,433.507874 1126.344849,433.507874 1129.721069,433.507874 
	C1129.968140,431.908295 1130.174683,430.571747 1130.410034,429.049164 
	C1147.325806,440.726257 1163.542603,431.920593 1169.194580,421.539246 
	C1176.927734,407.335297 1171.986938,390.233521 1156.994507,382.311462 
M1403.411255,393.216522 
	C1400.328613,387.496857 1395.593994,383.809143 1389.404785,381.999023 
	C1376.574585,378.246552 1363.363159,384.265900 1358.298950,396.118347 
	C1352.667358,409.298981 1357.370850,425.037170 1368.900146,431.590363 
	C1380.424072,438.140564 1397.356323,434.974335 1404.354980,425.671509 
	C1402.152466,423.112244 1400.052368,420.671906 1397.879150,418.146637 
	C1391.718506,424.492035 1384.308960,426.451294 1376.007202,423.595551 
	C1370.494873,421.699402 1367.749268,417.290283 1367.030518,411.079285 
	C1373.893433,411.079285 1380.501587,411.079254 1387.109741,411.079254 
	C1393.689941,411.079254 1400.270264,411.079285 1408.185669,411.079285 
	C1406.551270,404.639191 1405.182739,399.246521 1403.411255,393.216522 
M1185.498047,390.046509 
	C1172.187378,406.972290 1183.758545,427.108337 1195.563843,433.789642 
	C1202.162598,437.524200 1205.704834,436.206390 1210.705688,430.832947 
	C1215.012939,426.204712 1220.164551,422.113373 1225.580200,418.838806 
	C1230.568115,415.822815 1233.141602,412.327759 1233.032593,406.500641 
	C1232.831665,395.763306 1226.617920,386.231079 1216.883301,382.236481 
	C1206.165161,377.838318 1194.781372,380.513916 1185.498047,390.046509 
M1240.916748,389.578186 
	C1240.945435,397.238983 1240.700806,404.912811 1241.064697,412.557648 
	C1241.660156,425.066101 1249.873047,433.340332 1262.551636,434.742218 
	C1274.906128,436.108246 1286.230591,429.862152 1288.165039,418.354004 
	C1290.173950,406.402863 1289.725586,394.038696 1290.354370,381.807800 
	C1285.689453,381.807800 1282.310303,381.807800 1278.648926,381.807800 
	C1278.648926,383.339050 1278.665039,384.488037 1278.646240,385.636414 
	C1278.495972,394.786499 1278.750854,403.967926 1278.055420,413.076691 
	C1277.488281,420.504669 1272.489380,424.567596 1265.478027,424.683014 
	C1258.715820,424.794373 1253.966187,421.007385 1252.515015,413.961578 
	C1251.984863,411.387421 1252.032715,408.671570 1252.013550,406.018921 
	C1251.955078,397.933685 1251.992432,389.847748 1251.992432,381.780151 
	C1247.939819,381.780151 1244.548584,381.780151 1240.916870,381.780151 
	C1240.916870,384.296875 1240.916870,386.452362 1240.916748,389.578186 
M1298.218384,384.469391 
	C1304.729614,399.748444 1311.416016,414.956879 1317.624390,430.358063 
	C1319.105835,434.032990 1321.397705,433.917084 1324.224243,433.770844 
	C1327.171997,433.618317 1330.260010,434.803864 1331.994751,430.508240 
	C1338.275513,414.955841 1344.981567,399.575256 1351.502319,384.119446 
	C1351.795654,383.424316 1351.848022,382.627625 1352.019409,381.846893 
	C1341.509521,380.556824 1341.514038,380.558624 1338.002563,389.527252 
	C1333.922485,399.947815 1329.833374,410.364868 1325.376099,421.732269 
	C1320.321655,408.910095 1315.650269,397.032135 1310.954346,385.163879 
	C1309.504150,381.498779 1300.456421,379.594086 1297.616211,382.376312 
	C1297.445557,382.543488 1297.845947,383.293579 1298.218384,384.469391 
M1428.198730,433.757690 
	C1428.813721,432.484589 1429.933228,431.222168 1429.960449,429.936646 
	C1430.119019,422.441345 1430.018555,414.940643 1430.011475,407.441742 
	C1430.006348,402.017487 1430.010498,396.593262 1430.010498,390.747894 
	C1435.777466,390.747894 1440.858765,390.747894 1445.806641,390.747894 
	C1445.806641,387.502045 1445.806641,384.705841 1445.806641,381.416809 
	C1440.542480,381.416809 1435.457397,381.416809 1429.852051,381.416809 
	C1429.852051,372.357758 1429.852051,363.779724 1429.852051,355.171387 
	C1426.038452,355.171387 1422.770508,355.171387 1419.037598,355.171387 
	C1419.037598,363.969299 1419.037598,372.562469 1419.037598,381.199432 
	C1416.450317,381.377991 1414.328979,381.524414 1412.071289,381.680237 
	C1412.071289,384.861755 1412.071289,387.770660 1412.071289,391.054871 
	C1414.419189,391.054871 1416.509644,391.054871 1419.207764,391.054871 
	C1419.207764,405.460693 1419.207764,419.498566 1419.207764,433.771088 
	C1422.304443,433.771088 1424.790161,433.771088 1428.198730,433.757690 
z"/>
<path fill="#1D43C6" opacity="1.000000" stroke="none" 
	d="
M1650.617554,659.621521 
	C1653.305298,714.147888 1640.479858,763.820190 1607.409180,807.279297 
	C1573.779297,851.473389 1529.205200,878.198303 1474.590210,888.129883 
	C1467.895020,889.347351 1461.124756,890.234802 1454.354004,890.930786 
	C1448.252441,891.558044 1442.102173,891.712708 1435.473755,892.105408 
	C1435.473755,813.639221 1435.473755,735.647278 1435.473755,657.287354 
	C1436.908325,657.174744 1438.350220,656.962952 1439.791992,656.962585 
	C1508.263062,656.946350 1576.734253,656.931641 1645.205200,657.041565 
	C1646.977661,657.044434 1648.747925,658.432861 1650.617554,659.621521 
z"/>
<path fill="#F8A86F" opacity="1.000000" stroke="none" 
	d="
M1400.392090,62.218395 
	C1445.943848,60.104492 1482.432861,88.076920 1491.390503,131.586472 
	C1501.293701,179.688858 1467.104614,227.209732 1418.309082,233.165482 
	C1372.384033,238.770859 1330.045044,207.171768 1323.113892,162.117767 
	C1315.878784,115.087456 1346.321045,71.713310 1392.507080,63.279312 
	C1394.961792,62.831070 1397.454468,62.591656 1400.392090,62.218395 
z"/>
<path fill="#77FC9B" opacity="1.000000" stroke="none" 
	d="
M1157.544312,642.460327 
	C1163.400024,652.733398 1169.050903,662.700684 1175.167114,673.488708 
	C1188.228760,651.330566 1200.903809,629.828064 1214.084473,607.467957 
	C1231.463135,638.065125 1248.466553,668.001770 1265.447266,697.898499 
	C1204.998047,697.898499 1145.033936,697.898499 1083.768799,697.898499 
	C1102.044556,666.839050 1119.544800,637.097839 1137.327271,606.876831 
	C1144.223999,619.034241 1150.781738,630.594299 1157.544312,642.460327 
z"/>
<path fill="#16183F" opacity="1.000000" stroke="none" 
	d="
M1157.322998,382.507996 
	C1171.986938,390.233521 1176.927734,407.335297 1169.194580,421.539246 
	C1163.542603,431.920593 1147.325806,440.726257 1130.410034,429.049164 
	C1130.174683,430.571747 1129.968140,431.908295 1129.721069,433.507874 
	C1126.344849,433.507874 1122.947021,433.507874 1119.267822,433.507874 
	C1119.267822,407.469818 1119.267822,381.574554 1119.267822,355.315338 
	C1122.510498,355.315338 1125.884521,355.315338 1129.708496,355.315338 
	C1129.708496,365.366241 1129.708496,375.438690 1129.708496,386.471741 
	C1138.555420,379.872681 1147.463501,378.474304 1157.322998,382.507996 
M1145.513550,424.526367 
	C1146.828979,424.362793 1148.170166,424.312042 1149.455566,424.017578 
	C1158.460327,421.954865 1163.638428,411.633514 1160.651367,401.778107 
	C1157.945068,392.849030 1148.671875,388.137115 1140.114258,391.342712 
	C1133.160278,393.947601 1129.093872,401.470093 1130.021118,410.014679 
	C1130.881104,417.940308 1136.031128,423.034637 1145.513550,424.526367 
z"/>
<path fill="#171840" opacity="1.000000" stroke="none" 
	d="
M1403.612793,393.535156 
	C1405.182739,399.246521 1406.551270,404.639191 1408.185669,411.079285 
	C1400.270264,411.079285 1393.689941,411.079254 1387.109741,411.079254 
	C1380.501587,411.079254 1373.893433,411.079285 1367.030518,411.079285 
	C1367.749268,417.290283 1370.494873,421.699402 1376.007202,423.595551 
	C1384.308960,426.451294 1391.718506,424.492035 1397.879150,418.146637 
	C1400.052368,420.671906 1402.152466,423.112244 1404.354980,425.671509 
	C1397.356323,434.974335 1380.424072,438.140564 1368.900146,431.590363 
	C1357.370850,425.037170 1352.667358,409.298981 1358.298950,396.118347 
	C1363.363159,384.265900 1376.574585,378.246552 1389.404785,381.999023 
	C1395.593994,383.809143 1400.328613,387.496857 1403.612793,393.535156 
M1385.372070,390.909546 
	C1375.702148,389.150787 1369.581177,392.850708 1367.411499,401.992157 
	C1376.646606,401.992157 1385.819336,401.992157 1395.414917,401.992157 
	C1394.370361,396.256195 1391.123413,392.941467 1385.372070,390.909546 
z"/>
<path fill="#161840" opacity="1.000000" stroke="none" 
	d="
M1185.734131,389.774323 
	C1194.781372,380.513916 1206.165161,377.838318 1216.883301,382.236481 
	C1226.617920,386.231079 1232.831665,395.763306 1233.032593,406.500641 
	C1233.141602,412.327759 1230.568115,415.822815 1225.580200,418.838806 
	C1220.164551,422.113373 1215.012939,426.204712 1210.705688,430.832947 
	C1205.704834,436.206390 1202.162598,437.524200 1195.563843,433.789642 
	C1183.758545,427.108337 1172.187378,406.972290 1185.734131,389.774323 
M1216.394287,395.999573 
	C1210.424683,391.593353 1204.100220,391.103210 1197.712524,394.795959 
	C1192.149170,398.012085 1189.622559,403.270691 1190.165771,409.514557 
	C1190.802612,416.835754 1194.849731,422.268555 1201.455811,425.457184 
	C1204.923340,427.130859 1207.908081,426.721222 1210.343140,422.827606 
	C1212.124756,419.978943 1214.901733,417.482971 1217.758423,415.641693 
	C1221.765137,413.059265 1223.233154,409.633362 1221.887207,405.469574 
	C1220.854370,402.273926 1218.645874,399.458252 1216.394287,395.999573 
z"/>
<path fill="#181940" opacity="1.000000" stroke="none" 
	d="
M1240.916748,389.093018 
	C1240.916870,386.452362 1240.916870,384.296875 1240.916870,381.780151 
	C1244.548584,381.780151 1247.939819,381.780151 1251.992432,381.780151 
	C1251.992432,389.847748 1251.955078,397.933685 1252.013550,406.018921 
	C1252.032715,408.671570 1251.984863,411.387421 1252.515015,413.961578 
	C1253.966187,421.007385 1258.715820,424.794373 1265.478027,424.683014 
	C1272.489380,424.567596 1277.488281,420.504669 1278.055420,413.076691 
	C1278.750854,403.967926 1278.495972,394.786499 1278.646240,385.636414 
	C1278.665039,384.488037 1278.648926,383.339050 1278.648926,381.807800 
	C1282.310303,381.807800 1285.689453,381.807800 1290.354370,381.807800 
	C1289.725586,394.038696 1290.173950,406.402863 1288.165039,418.354004 
	C1286.230591,429.862152 1274.906128,436.108246 1262.551636,434.742218 
	C1249.873047,433.340332 1241.660156,425.066101 1241.064697,412.557648 
	C1240.700806,404.912811 1240.945435,397.238983 1240.916748,389.093018 
z"/>
<path fill="#191A41" opacity="1.000000" stroke="none" 
	d="
M1298.099487,384.120911 
	C1297.845947,383.293579 1297.445557,382.543488 1297.616211,382.376312 
	C1300.456421,379.594086 1309.504150,381.498779 1310.954346,385.163879 
	C1315.650269,397.032135 1320.321655,408.910095 1325.376099,421.732269 
	C1329.833374,410.364868 1333.922485,399.947815 1338.002563,389.527252 
	C1341.514038,380.558624 1341.509521,380.556824 1352.019409,381.846893 
	C1351.848022,382.627625 1351.795654,383.424316 1351.502319,384.119446 
	C1344.981567,399.575256 1338.275513,414.955841 1331.994751,430.508240 
	C1330.260010,434.803864 1327.171997,433.618317 1324.224243,433.770844 
	C1321.397705,433.917084 1319.105835,434.032990 1317.624390,430.358063 
	C1311.416016,414.956879 1304.729614,399.748444 1298.099487,384.120911 
z"/>
<path fill="#16183F" opacity="1.000000" stroke="none" 
	d="
M1427.737305,433.764404 
	C1424.790161,433.771088 1422.304443,433.771088 1419.207764,433.771088 
	C1419.207764,419.498566 1419.207764,405.460693 1419.207764,391.054871 
	C1416.509644,391.054871 1414.419189,391.054871 1412.071289,391.054871 
	C1412.071289,387.770660 1412.071289,384.861755 1412.071289,381.680237 
	C1414.328979,381.524414 1416.450317,381.377991 1419.037598,381.199432 
	C1419.037598,372.562469 1419.037598,363.969299 1419.037598,355.171387 
	C1422.770508,355.171387 1426.038452,355.171387 1429.852051,355.171387 
	C1429.852051,363.779724 1429.852051,372.357758 1429.852051,381.416809 
	C1435.457397,381.416809 1440.542480,381.416809 1445.806641,381.416809 
	C1445.806641,384.705841 1445.806641,387.502045 1445.806641,390.747894 
	C1440.858765,390.747894 1435.777466,390.747894 1430.010498,390.747894 
	C1430.010498,396.593262 1430.006348,402.017487 1430.011475,407.441742 
	C1430.018555,414.940643 1430.119019,422.441345 1429.960449,429.936646 
	C1429.933228,431.222168 1428.813721,432.484589 1427.737305,433.764404 
z"/>
<path fill="#F5E7D1" opacity="1.000000" stroke="none" 
	d="
M1145.074707,424.498962 
	C1136.031128,423.034637 1130.881104,417.940308 1130.021118,410.014679 
	C1129.093872,401.470093 1133.160278,393.947601 1140.114258,391.342712 
	C1148.671875,388.137115 1157.945068,392.849030 1160.651367,401.778107 
	C1163.638428,411.633514 1158.460327,421.954865 1149.455566,424.017578 
	C1148.170166,424.312042 1146.828979,424.362793 1145.074707,424.498962 
z"/>
<path fill="#F5E7D1" opacity="1.000000" stroke="none" 
	d="
M1385.755127,390.988831 
	C1391.123413,392.941467 1394.370361,396.256195 1395.414917,401.992157 
	C1385.819336,401.992157 1376.646606,401.992157 1367.411499,401.992157 
	C1369.581177,392.850708 1375.702148,389.150787 1385.755127,390.988831 
z"/>
<path fill="#F5E7D1" opacity="1.000000" stroke="none" 
	d="
M1216.677246,396.236572 
	C1218.645874,399.458252 1220.854370,402.273926 1221.887207,405.469574 
	C1223.233154,409.633362 1221.765137,413.059265 1217.758423,415.641693 
	C1214.901733,417.482971 1212.124756,419.978943 1210.343140,422.827606 
	C1207.908081,426.721222 1204.923340,427.130859 1201.455811,425.457184 
	C1194.849731,422.268555 1190.802612,416.835754 1190.165771,409.514557 
	C1189.622559,403.270691 1192.149170,398.012085 1197.712524,394.795959 
	C1204.100220,391.103210 1210.424683,391.593353 1216.677246,396.236572 
z"/>
</svg>