<?xml version="1.0" standalone="no"?>
<!DOCTYPE svg PUBLIC "-//W3C//DTD SVG 20010904//EN"
 "http://www.w3.org/TR/2001/REC-SVG-20010904/DTD/svg10.dtd">
<svg version="1.0" xmlns="http://www.w3.org/2000/svg"
 width="1124.000000pt" height="1384.000000pt" viewBox="0 0 1124.000000 1384.000000"
 preserveAspectRatio="xMidYMid meet">

<g transform="translate(0.000000,1384.000000) scale(0.100000,-0.100000)"
fill="#11133C" stroke="none">
<path d="M0 6900 l0 -6900 5620 0 5620 0 0 6900 0 6900 -5620 0 -5620 0 0
-6900z m7055 6010 c139 -16 268 -54 400 -119 356 -175 589 -477 671 -871 13
-59 18 -129 18 -230 0 -337 -117 -623 -354 -861 -423 -426 -1073 -487 -1576
-149 -103 70 -256 224 -323 325 -142 217 -205 428 -205 685 0 480 256 888 689
1101 220 107 439 146 680 119z m1585 -4830 l0 -1500 -3530 0 -3530 0 0 1500 0
1500 3530 0 3530 0 0 -1500z m-5320 -3492 c139 -246 256 -445 260 -443 4 3
131 214 281 470 169 287 276 460 281 452 49 -81 735 -1293 733 -1295 -3 -3
-2599 18 -2601 21 -1 1 170 293 380 649 l380 646 16 -26 c9 -15 130 -228 270
-474z"/>
<path d="M2770 8140 l0 -570 80 0 80 0 0 35 c0 19 2 35 5 35 2 0 21 -11 41
-25 49 -34 125 -55 194 -55 208 0 370 170 370 388 0 161 -75 287 -213 359 -47
25 -62 28 -157 28 -109 0 -135 -7 -206 -55 l-32 -21 -7 226 -7 225 -74 0 -74
0 0 -570z m489 31 c167 -86 156 -375 -18 -449 -80 -33 -191 -11 -248 50 -57
61 -79 177 -51 272 16 54 91 130 144 144 52 15 124 8 173 -17z"/>
<path d="M7080 8520 l0 -190 -50 0 -50 0 0 -70 0 -70 50 0 50 0 2 -307 3 -308
78 -3 77 -3 0 311 0 310 115 0 115 0 0 70 0 70 -115 0 -115 0 0 190 0 190 -80
0 -80 0 0 -190z"/>
<path d="M3901 8324 c-195 -71 -302 -277 -243 -471 62 -203 260 -363 370 -297
15 8 45 41 67 71 46 64 112 117 201 162 34 16 71 42 82 56 29 36 37 106 23
183 -23 126 -95 223 -206 278 -51 24 -73 29 -155 31 -68 2 -107 -1 -139 -13z
m190 -166 c79 -23 149 -106 162 -191 9 -59 -8 -93 -74 -138 -34 -25 -74 -64
-95 -95 -31 -48 -39 -54 -69 -54 -48 0 -79 14 -128 59 -94 87 -121 217 -64
313 56 96 163 138 268 106z"/>
<path d="M6440 8324 c-104 -28 -176 -86 -224 -182 -35 -70 -50 -145 -43 -221
8 -87 20 -125 59 -191 120 -199 430 -228 624 -58 l35 31 -52 53 -52 53 -34
-29 c-63 -56 -90 -65 -195 -65 -91 0 -99 2 -139 30 -42 30 -72 75 -84 127 l-7
28 288 2 289 3 -2 75 c0 41 -8 95 -17 120 -67 183 -252 276 -446 224z m197
-145 c50 -24 90 -72 99 -117 l7 -32 -207 0 -207 0 7 23 c18 60 66 117 114 136
45 18 140 13 187 -10z"/>
<path d="M4520 8112 c0 -236 9 -311 45 -382 54 -106 148 -161 286 -168 162 -8
268 48 331 175 l33 67 3 264 3 263 -78 -3 -78 -3 -5 -250 c-5 -239 -6 -252
-28 -287 -83 -133 -292 -105 -337 45 -11 39 -15 104 -15 274 l0 223 -80 0 -80
0 0 -218z"/>
<path d="M5330 8327 c0 -2 71 -172 158 -378 l158 -374 80 -3 c78 -3 81 -2 92
23 42 92 302 716 302 724 0 7 -28 11 -75 11 -63 0 -76 -3 -85 -19 -5 -11 -55
-135 -110 -276 -55 -141 -103 -263 -108 -271 -6 -11 -42 71 -122 275 l-113
291 -89 0 c-48 0 -88 -1 -88 -3z"/>
</g>
</svg>
